<mxfile host="app.diagrams.net" modified="2022-05-12T01:27:05.993Z" agent="5.0 (Windows NT 10.0; Win64; x64) AppleWebKit/537.36 (KHTML, like Gecko) Chrome/101.0.4951.54 Safari/537.36 Edg/101.0.1210.39" etag="RLwEKeApcZHA5WoVCjVf" version="18.0.3" type="github">
  <diagram id="gWGoIFUpQrK2dqqGRWAS" name="第 1 页">
    <mxGraphModel dx="1422" dy="793" grid="1" gridSize="10" guides="1" tooltips="1" connect="1" arrows="1" fold="1" page="1" pageScale="1" pageWidth="827" pageHeight="1169" math="0" shadow="0">
      <root>
        <mxCell id="0" />
        <mxCell id="1" parent="0" />
        <mxCell id="uYVcK8XoJKoFX6cD1d1W-3" style="edgeStyle=orthogonalEdgeStyle;rounded=0;orthogonalLoop=1;jettySize=auto;html=1;exitX=1;exitY=0.5;exitDx=0;exitDy=0;" edge="1" parent="1" source="uYVcK8XoJKoFX6cD1d1W-1" target="uYVcK8XoJKoFX6cD1d1W-2">
          <mxGeometry relative="1" as="geometry" />
        </mxCell>
        <mxCell id="uYVcK8XoJKoFX6cD1d1W-1" value="" style="rounded=0;whiteSpace=wrap;html=1;" vertex="1" parent="1">
          <mxGeometry x="30" y="170" width="120" height="60" as="geometry" />
        </mxCell>
        <mxCell id="uYVcK8XoJKoFX6cD1d1W-2" value="" style="rounded=1;whiteSpace=wrap;html=1;" vertex="1" parent="1">
          <mxGeometry x="230" y="170" width="120" height="60" as="geometry" />
        </mxCell>
      </root>
    </mxGraphModel>
  </diagram>
</mxfile>
